<?xml version="1.0" encoding="UTF-8"?>
<svg width="590px" height="391px" viewBox="0 0 590 391" version="1.1" xmlns="http://www.w3.org/2000/svg" xmlns:xlink="http://www.w3.org/1999/xlink">
    <!-- Generator: Sketch 55.1 (78136) - https://sketchapp.com -->
    <title>Kuas-duplicate</title>
    <desc>Created with Sketch.</desc>
    <g id="NewLogo" stroke="none" stroke-width="1" fill="none" fill-rule="evenodd">
        <g id="KuasMain">
            <g id="Kuas-duplicate">
                <g id="BackGround">
                    <rect id="Rectangle" fill="#000000" x="0" y="0" width="440" height="391" rx="8"></rect>
                    <path d="M333.108413,80.2857816 L540.608998,87.2225671 C544.817534,87.3632593 548.196547,90.7422723 548.337239,94.9508083 L555.274024,302.451393 C555.421646,306.867204 551.961595,310.566597 547.545783,310.714218 C547.367638,310.720174 547.189344,310.720174 547.011199,310.714218 L339.510614,303.777433 C335.302078,303.636741 331.923065,300.257728 331.782373,296.049192 L324.845588,88.5486073 C324.697966,84.1327961 328.158018,80.4334031 332.573829,80.2857816 C332.751974,80.2798262 332.930268,80.2798262 333.108413,80.2857816 Z" id="Rectangle" fill="#008b8b" transform="translate(440.059806, 195.500000) rotate(45.000000) translate(-440.059806, -195.500000) "></path>
                    <ellipse id="Oval" stroke="#979797" fill="#000000" cx="440" cy="195.56338" rx="79" ry="84.5633803"></ellipse>
                </g>
                <path d="M164,0 L149.5,87.5 C147.969085,93.9147099 145.135752,99.4147099 141,104 C136.864248,108.58529 132.030915,111.58529 126.5,113 C120.87503,114.391661 112.37503,116.224994 101,118.5 C83.937455,121.912509 72.7234469,120.132945 66.5,125 C60.2765531,129.867055 57.5,133 56,143.5 C55,150.5 61.3333333,161.5 75,176.5 L60.5,182.5 L71.5,200.5 L91.5,196.5 L104.5,218.5 L84.5,227 L90,239.5 L114.5,234.5 L153.5,299 L135,309.5 L142,322 L164,316.5 L177,338 L155,348 L164,361 L188,356.5 L208.5,391 L246.5,391 C250.5,385.666667 252.5,379.666667 252.5,373 C252.5,363 230,324 225.5,313.5 C222.5,306.5 218.333333,294.833333 213,278.5 C205.94966,254.433484 202.782993,234.433484 203.5,218.5 C204.57551,194.599774 230.784737,193.081941 228.5,182.5 C226.215263,171.918059 189.227023,170.858576 185.5,161 C183.015318,154.427616 187.848651,140.260949 200,118.5 C212.754421,94.1373334 224.421087,75.4706667 235,62.5 C245.578913,49.5293333 255.912246,38.3626666 266,29 L286.5,12 L301.5,0 L164,0 Z" id="shoe" fill="#008b8b"></path>
                <g id="laces" transform="translate(97.000000, 57.000000)" fill="#000000">
                    <rect id="Rectangle" transform="translate(28.000000, 45.000000) rotate(-25.000000) translate(-28.000000, -45.000000) " x="19" y="0" width="18" height="90" rx="8"></rect>
                    <rect id="Rectangle" transform="translate(125.500000, 208.000000) rotate(90.000000) translate(-125.500000, -208.000000) " x="117" y="164" width="17" height="88" rx="8"></rect>
                    <rect id="Rectangle" transform="translate(94.500000, 171.000000) rotate(90.000000) translate(-94.500000, -171.000000) " x="86" y="127" width="17" height="88" rx="8"></rect>
                </g>
            </g>
        </g>
    </g>
</svg>
