<?xml version="1.0" encoding="UTF-8"?>
<svg xmlns="http://www.w3.org/2000/svg" xmlns:xlink="http://www.w3.org/1999/xlink" width="24px" height="24px" viewBox="0 0 24 24" version="1.1">
<g id="surface1">
<path style=" stroke:none;fill-rule:nonzero;fill:rgb(0%,0%,0%);fill-opacity:1;" d="M 16.8125 21 C 16.8125 21.828125 16.195312 22.5 15.4375 22.5 C 14.679688 22.5 14.0625 21.828125 14.0625 21 C 14.0625 20.171875 14.679688 19.5 15.4375 19.5 C 16.195312 19.5 16.8125 20.171875 16.8125 21 Z M 16.8125 21 "/>
<path style=" stroke:none;fill-rule:nonzero;fill:rgb(0%,0%,0%);fill-opacity:1;" d="M 9.25 15.441406 L 13.089844 11.25 L 14.0625 12.3125 L 10.222656 16.5 Z M 9.25 15.441406 "/>
<path style=" stroke:none;fill-rule:nonzero;fill:rgb(0%,0%,0%);fill-opacity:1;" d="M 23 12.4375 L 17.097656 6 L 7.875 6 L 7.875 7.5 L 16.527344 7.5 L 18.589844 9.75 L 7.875 21.4375 L 8.847656 22.5 L 19.5625 10.8125 L 22.027344 13.5 L 19.5625 16.1875 L 20.535156 17.25 L 23 14.5625 C 23.535156 13.976562 23.535156 13.023438 23 12.4375 Z M 23 12.4375 "/>
<path style=" stroke:none;fill-rule:nonzero;fill:rgb(0%,0%,0%);fill-opacity:1;" d="M 20.59375 6.75 C 19.265625 6.75 18.1875 5.574219 18.1875 4.125 C 18.1875 2.675781 19.265625 1.5 20.59375 1.5 C 21.921875 1.5 23 2.675781 23 4.125 C 23 5.574219 21.921875 6.75 20.59375 6.75 Z M 20.59375 3 C 20.023438 3 19.5625 3.503906 19.5625 4.125 C 19.5625 4.746094 20.023438 5.25 20.59375 5.25 C 21.164062 5.25 21.625 4.746094 21.625 4.125 C 21.625 3.503906 21.164062 3 20.59375 3 Z M 20.59375 3 "/>
</g>
</svg>
