<?xml version="1.0" encoding="UTF-8"?>
<svg xmlns="http://www.w3.org/2000/svg" xmlns:xlink="http://www.w3.org/1999/xlink" width="97px" height="64px" viewBox="0 0 96 64" version="1.1">
<g id="surface1">
<path style=" stroke:none;fill-rule:evenodd;fill:rgb(0%,0%,0%);fill-opacity:1;" d="M 1.300781 0 L 70.292969 0 C 71.011719 0 71.59375 0.585938 71.59375 1.308594 L 71.59375 62.691406 C 71.59375 63.414062 71.011719 64 70.292969 64 L 1.300781 64 C 0.582031 64 0 63.414062 0 62.691406 L 0 1.308594 C 0 0.585938 0.582031 0 1.300781 0 Z M 1.300781 0 "/>
<path style=" stroke:none;fill-rule:evenodd;fill:rgb(0%,54.509804%,54.509804%);fill-opacity:1;" d="M 72.554688 6.285156 L 95.628906 31.105469 C 96.097656 31.609375 96.097656 32.390625 95.628906 32.894531 L 72.554688 57.714844 C 72.0625 58.242188 71.238281 58.269531 70.714844 57.777344 C 70.691406 57.753906 70.671875 57.734375 70.652344 57.714844 L 47.578125 32.894531 C 47.109375 32.390625 47.109375 31.609375 47.578125 31.105469 L 70.652344 6.285156 C 71.144531 5.757812 71.96875 5.730469 72.492188 6.222656 C 72.511719 6.246094 72.535156 6.265625 72.554688 6.285156 Z M 72.554688 6.285156 "/>
<path style="fill-rule:evenodd;fill:rgb(0%,0%,0%);fill-opacity:1;stroke-width:1;stroke-linecap:butt;stroke-linejoin:miter;stroke:rgb(59.215686%,59.215686%,59.215686%);stroke-opacity:1;stroke-miterlimit:4;" d="M 519.010824 195.571594 C 519.010824 148.868286 483.624268 110.994934 440.003255 110.994934 C 396.358236 110.994934 360.995687 148.868286 360.995687 195.571594 C 360.995687 242.274902 396.358236 280.12439 440.003255 280.12439 C 483.624268 280.12439 519.010824 242.274902 519.010824 195.571594 Z M 519.010824 195.571594 " transform="matrix(0.162712,0,0,0.163683,0,0)"/>
<path style=" stroke:none;fill-rule:evenodd;fill:rgb(0%,54.509804%,54.509804%);fill-opacity:1;" d="M 26.683594 0 L 24.324219 14.320312 C 24.078125 15.371094 23.617188 16.273438 22.941406 17.023438 C 22.269531 17.773438 21.484375 18.265625 20.582031 18.496094 C 19.667969 18.722656 18.285156 19.023438 16.433594 19.394531 C 13.65625 19.953125 11.832031 19.664062 10.820312 20.460938 C 9.808594 21.257812 9.355469 21.769531 9.113281 23.488281 C 8.949219 24.632812 9.980469 26.433594 12.203125 28.890625 L 9.84375 29.871094 L 11.632812 32.820312 L 14.886719 32.164062 L 17.003906 35.765625 L 13.75 37.15625 L 14.644531 39.203125 L 18.628906 38.382812 L 24.976562 48.941406 L 21.964844 50.660156 L 23.105469 52.707031 L 26.683594 51.804688 L 28.800781 55.324219 L 25.21875 56.960938 L 26.683594 59.089844 L 30.589844 58.351562 L 33.925781 64 L 40.109375 64 C 40.757812 63.128906 41.085938 62.144531 41.085938 61.054688 C 41.085938 59.417969 37.421875 53.035156 36.691406 51.316406 C 36.203125 50.167969 35.527344 48.257812 34.65625 45.585938 C 33.511719 41.644531 32.996094 38.371094 33.113281 35.765625 C 33.285156 31.851562 37.550781 31.605469 37.179688 29.871094 C 36.808594 28.140625 30.789062 27.964844 30.183594 26.351562 C 29.777344 25.277344 30.566406 22.957031 32.542969 19.394531 C 34.617188 15.410156 36.515625 12.351562 38.238281 10.230469 C 39.957031 8.105469 41.640625 6.28125 43.28125 4.746094 L 46.617188 1.964844 L 49.058594 0 Z M 26.683594 0 "/>
<path style=" stroke:none;fill-rule:evenodd;fill:rgb(0%,0%,0%);fill-opacity:1;" d="M 17.097656 10.089844 L 17.390625 9.949219 C 18.042969 9.644531 18.816406 9.929688 19.121094 10.585938 L 24.210938 21.5625 C 24.515625 22.21875 24.234375 22.996094 23.582031 23.300781 L 23.285156 23.441406 C 22.632812 23.746094 21.859375 23.460938 21.554688 22.808594 L 16.46875 11.828125 C 16.164062 11.175781 16.445312 10.394531 17.097656 10.089844 Z M 17.097656 10.089844 "/>
<path style=" stroke:none;fill-rule:evenodd;fill:rgb(0%,0%,0%);fill-opacity:1;" d="M 43.363281 43.292969 L 43.363281 43.457031 C 43.363281 44.179688 42.78125 44.765625 42.0625 44.765625 L 30.347656 44.765625 C 29.625 44.765625 29.042969 44.179688 29.042969 43.457031 L 29.042969 43.292969 C 29.042969 42.570312 29.625 41.984375 30.347656 41.984375 L 42.0625 41.984375 C 42.78125 41.984375 43.363281 42.570312 43.363281 43.292969 Z M 43.363281 43.292969 "/>
<path style=" stroke:none;fill-rule:evenodd;fill:rgb(0%,0%,0%);fill-opacity:1;" d="M 38.320312 37.238281 L 38.320312 37.402344 C 38.320312 38.125 37.734375 38.710938 37.015625 38.710938 L 25.300781 38.710938 C 24.582031 38.710938 24 38.125 24 37.402344 L 24 37.238281 C 24 36.515625 24.582031 35.929688 25.300781 35.929688 L 37.015625 35.929688 C 37.734375 35.929688 38.320312 36.515625 38.320312 37.238281 Z M 38.320312 37.238281 "/>
</g>
</svg>
